<svg xmlns="http://www.w3.org/2000/svg" viewBox="0 0 880 244" width="880" height="244" role="img" aria-label="Recent GitHub activity">
<defs>
  <pattern id="ag" width="20" height="20" patternUnits="userSpaceOnUse"><circle cx="2" cy="2" r="1.5" fill="#111111" opacity="0.06"/></pattern>
  <clipPath id="ap"><rect x="10" y="12" width="844" height="210"/></clipPath>
</defs>
<style>
 .m{font-family:'SF Mono',ui-monospace,Menlo,Consolas,monospace}
 .panel{animation:snap .6s cubic-bezier(0.16,1,0.3,1) both;transform-box:fill-box;transform-origin:top left}
 @keyframes snap{from{transform:translate(-8px,-8px)}to{transform:translate(0,0)}}
 .acc{animation:cyc 4.5s ease-in-out infinite}
 @keyframes cyc{0%,100%{fill:#0A84FF}33%{fill:#FF453A}66%{fill:#FFD60A}}
</style>
<rect x="16" y="20" width="848" height="212" fill="#111111"/>
<g class="panel">
<rect x="8" y="12" width="848" height="210" fill="#f4f1ea" stroke="#111111" stroke-width="4"/>
<g clip-path="url(#ap)">
<rect x="10" y="12" width="844" height="210" fill="url(#ag)"/>
<rect class="acc" x="34" y="34" width="8" height="22" fill="#0A84FF"/>
<text class="m" x="52" y="52" font-size="17" font-weight="700" fill="#111111">RECENT ACTIVITY</text>
<text class="m" x="846" y="51" font-size="12.5" text-anchor="end" fill="#8a8a8a">git log --oneline -5</text>
<rect x="34" y="70" width="812" height="2" fill="#111111" opacity="0.12"/>
<rect x="36" y="90" width="9" height="9" fill="#0A84FF"/><text class="m" x="54" y="100" font-size="14.5" fill="#1a1a1a">Pushed 1 commit to OmniChat</text><text class="m" x="846" y="100" font-size="12.5" text-anchor="end" fill="#8a8a8a">2026-07-14</text>
<rect x="36" y="116" width="9" height="9" fill="#FF453A"/><text class="m" x="54" y="126" font-size="14.5" fill="#1a1a1a">Pushed 1 commit to SlideCraft</text><text class="m" x="846" y="126" font-size="12.5" text-anchor="end" fill="#8a8a8a">2026-07-14</text>
<rect x="36" y="142" width="9" height="9" fill="#0A84FF"/><text class="m" x="54" y="152" font-size="14.5" fill="#1a1a1a">Pushed 1 commit to BNBU-scheduler</text><text class="m" x="846" y="152" font-size="12.5" text-anchor="end" fill="#8a8a8a">2026-07-12</text>
<rect x="36" y="168" width="9" height="9" fill="#FF453A"/><text class="m" x="54" y="178" font-size="14.5" fill="#1a1a1a">Pushed 1 commit to Abellungu/roofy-website</text><text class="m" x="846" y="178" font-size="12.5" text-anchor="end" fill="#8a8a8a">2026-07-11</text>
<rect x="36" y="194" width="9" height="9" fill="#0A84FF"/><text class="m" x="54" y="204" font-size="14.5" fill="#1a1a1a">Pushed 1 commit to xiaohuliming</text><text class="m" x="846" y="204" font-size="12.5" text-anchor="end" fill="#8a8a8a">2026-07-09</text>
</g>
</g>
</svg>
